<?xml version="1.0" standalone="no"?>
<!DOCTYPE svg PUBLIC "-//W3C//DTD SVG 20010904//EN" "http://www.w3.org/TR/2001/REC-SVG-20010904/DTD/svg10.dtd">
<svg version="1.0" xmlns="http://www.w3.org/2000/svg" viewBox="0 0 512.000000 174.000000"
    preserveAspectRatio="xMidYMid meet">

    <g transform="translate(-24.200000,161.500000) scale(0.108000,-0.100000)" fill="#000000" stroke="none">
        <path d="M1016 1602 c-3 -5 -51 -12 -107 -15 -56 -4 -107 -11 -113 -17 -5 -5
-22 -10 -37 -10 -15 0 -31 -4 -34 -10 -3 -5 -13 -10 -22 -10 -20 0 -103 -41
-103 -51 0 -4 -15 -11 -32 -15 -21 -4 -58 -31 -101 -73 -66 -63 -157 -179
-157 -199 0 -5 -7 -15 -15 -22 -8 -7 -15 -21 -15 -31 0 -11 -4 -27 -9 -37 -29
-60 -41 -127 -41 -239 0 -100 4 -131 26 -198 27 -86 73 -185 85 -185 4 0 21
-21 37 -48 45 -68 181 -192 212 -192 7 0 33 -10 59 -23 25 -13 64 -28 86 -34
146 -42 70 -40 1790 -38 996 1 1647 5 1655 11 8 5 53 12 100 16 145 12 193 22
247 50 28 15 54 32 58 38 3 5 17 10 30 10 28 0 159 120 214 195 49 66 91 143
91 166 0 10 5 21 10 24 6 3 10 19 10 35 0 16 7 55 15 87 15 60 12 118 -15 248
-6 28 -13 62 -17 77 -3 15 -11 33 -19 39 -8 6 -14 16 -14 22 0 5 -11 25 -25
43 -14 18 -25 37 -25 42 0 5 -44 52 -97 105 -67 67 -103 97 -120 97 -13 0 -23
3 -23 8 0 7 -11 14 -72 43 -47 23 -185 52 -308 65 -37 4 -68 13 -73 20 -7 12
-268 14 -1567 14 -857 0 -1561 -4 -1564 -8z m-36 -725 c3 -454 2 -661 -6 -667
-11 -10 -166 15 -196 31 -10 5 -30 9 -45 9 -16 0 -50 12 -77 26 -50 27 -196
141 -196 154 0 4 -18 27 -39 52 -45 50 -91 132 -91 159 0 10 -5 21 -10 24 -6
3 -10 17 -10 29 0 13 -7 40 -15 59 -19 47 -20 178 -1 237 8 25 22 71 31 102 9
32 21 60 26 64 5 3 9 12 9 21 0 9 17 35 38 59 20 23 50 60 66 81 50 64 157
141 222 158 32 8 62 19 68 25 5 5 21 10 35 10 15 0 44 7 66 14 22 8 58 13 80
13 l40 -2 5 -658z m665 342 l0 -314 -300 0 -300 0 -3 309 c-1 181 2 312 7 315
5 3 141 5 303 5 l293 -2 0 -313z m573 311 c10 0 12 -66 10 -312 l-3 -313 -265
0 -265 0 -3 312 c-2 285 -1 312 15 315 12 2 303 1 511 -2z m660 -315 l2 -315
-302 2 -303 3 -3 305 c-1 168 -1 309 2 315 2 7 107 9 302 8 l299 -3 3 -315z
m610 1 l2 -316 -280 0 -280 0 0 313 c0 173 2 316 4 318 2 2 127 3 278 2 l273
-2 3 -315z m367 314 l260 0 2 -296 c2 -188 -1 -303 -7 -315 -10 -18 -25 -19
-290 -19 l-280 0 0 313 c0 173 3 317 7 321 4 4 17 5 28 2 11 -3 137 -6 280 -6z
m500 -18 c64 -13 125 -35 125 -44 0 -5 12 -8 28 -8 15 0 43 -12 62 -29 19 -15
49 -35 65 -44 84 -44 200 -204 241 -332 27 -84 27 -285 1 -367 -11 -32 -23
-60 -28 -64 -5 -3 -9 -12 -9 -21 0 -20 -81 -135 -134 -191 -23 -24 -54 -50
-71 -58 -16 -8 -48 -27 -70 -44 -22 -16 -50 -29 -62 -30 -12 0 -34 -6 -50 -14
-51 -26 -110 -38 -187 -40 l-76 -1 0 648 c0 356 0 650 0 653 0 7 99 -1 165
-14z m-2989 -652 l284 0 0 -315 0 -315 -302 2 -303 3 -3 305 c-1 168 0 311 3
318 3 8 12 11 21 8 9 -3 144 -6 300 -6z m852 2 c9 -7 12 -77 10 -318 l-3 -309
-265 0 -265 0 0 310 0 310 250 5 c138 3 252 6 255 8 3 1 11 -2 18 -6z m657
-313 l0 -314 -300 0 -300 0 -3 312 -2 313 292 2 c161 2 298 3 303 2 6 0 10
-113 10 -315z m613 -4 l2 -315 -280 0 -280 0 0 313 c0 173 2 316 4 318 2 2
127 3 278 2 l273 -2 3 -316z m618 311 c8 -3 11 -88 10 -313 l-1 -308 -285 0
-285 0 -3 305 c-1 168 -1 309 2 315 3 10 536 11 562 1z" />
    </g>
</svg>